<?xml version="1.0" encoding="UTF-8"?>
<svg width="100" height="100" viewBox="0 0 100 100" xmlns="http://www.w3.org/2000/svg">
  <rect width="100" height="100" fill="#f8f3e6"/>
  <g transform="translate(15, 15) scale(0.7)">
    <path d="M40,30 C55,15 75,20 80,40 C85,60 70,80 50,80 C30,80 15,60 20,40 C25,20 35,20 40,30" 
          stroke="#3a3124" stroke-width="2" fill="none"/>
    <path d="M40,30 C55,40 70,30 80,40" stroke="#3a3124" stroke-width="1.5" fill="none"/>
    <path d="M20,40 C35,50 50,45 65,40" stroke="#3a3124" stroke-width="1.5" fill="none"/>
    <path d="M30,60 C40,65 60,65 70,60" stroke="#3a3124" stroke-width="1.5" fill="none"/>
    <line x1="50" y1="30" x2="50" y2="80" stroke="#3a3124" stroke-width="1" fill="none"/>
  </g>
</svg>